<?xml version="1.0" standalone="no"?>
<!DOCTYPE svg PUBLIC "-//W3C//DTD SVG 20010904//EN"
 "http://www.w3.org/TR/2001/REC-SVG-20010904/DTD/svg10.dtd">
<svg version="1.0" xmlns="http://www.w3.org/2000/svg"
 width="700.000000pt" height="700.000000pt" viewBox="0 0 700.000000 700.000000"
 preserveAspectRatio="xMidYMid meet">
<metadata>
Created by potrace 1.14, written by Peter Selinger 2001-2017
</metadata>
<g transform="translate(0.000000,700.000000) scale(0.100000,-0.100000)"
fill="#000000" stroke="none">
<path d="M2978 5945 c-2 -2 -32 -6 -68 -9 -519 -54 -1026 -329 -1369 -743
-127 -153 -188 -249 -276 -428 -85 -175 -128 -303 -180 -542 l-5 -23 269 0
269 0 7 33 c27 125 122 342 209 475 105 161 249 311 408 425 157 113 445 240
593 261 22 3 51 8 64 10 115 24 378 25 501 1 113 -21 146 -30 230 -57 250 -80
450 -205 640 -397 207 -209 363 -497 419 -771 20 -96 21 -104 28 -180 42 -460
-108 -891 -428 -1234 -39 -42 -100 -99 -137 -128 -37 -29 -69 -55 -72 -58 -3
-3 -34 -25 -70 -49 -94 -61 -270 -144 -380 -179 -83 -26 -126 -37 -230 -57
-93 -18 -320 -24 -420 -10 -30 4 -68 9 -85 11 -69 9 -240 57 -330 94 -320 130
-595 371 -772 676 l-48 84 -287 0 -286 0 20 -52 c58 -155 152 -327 262 -483
111 -156 399 -435 528 -510 9 -5 50 -30 90 -55 133 -81 330 -169 468 -209 25
-7 56 -17 70 -22 37 -12 235 -49 310 -57 36 -4 142 -7 235 -7 212 1 285 9 465
51 177 41 257 69 425 149 96 45 261 138 275 154 3 3 12 11 21 16 9 6 35 23 58
39 l42 29 746 -746 747 -747 185 185 185 186 -747 747 -747 747 53 75 c77 109
120 183 182 311 45 94 125 309 140 377 14 60 45 227 51 277 11 76 11 401 1
479 -78 620 -395 1147 -902 1498 -275 190 -587 308 -935 353 -86 11 -412 18
-422 10z"/>
<path d="M2210 4838 c-8 -35 -15 -67 -17 -73 -1 -5 -27 -109 -58 -230 -31
-121 -57 -227 -59 -236 -2 -8 -11 -44 -20 -80 -9 -35 -18 -74 -21 -87 -2 -12
-6 -26 -9 -30 -5 -8 -7 -20 -22 -92 -3 -14 -10 -43 -16 -65 -6 -22 -13 -46
-14 -53 -8 -44 32 -42 -819 -42 l-805 0 0 -175 0 -175 943 0 943 0 38 148 c20
81 40 158 42 171 8 38 124 494 130 511 5 13 102 -353 173 -655 11 -44 64 -258
119 -475 l99 -395 219 -3 219 -2 163 490 163 490 157 -315 157 -315 230 0 231
0 -1 175 0 175 -120 0 -121 0 -174 350 -175 350 -205 0 -206 0 -149 -445 c-82
-244 -151 -443 -153 -440 -2 2 -92 358 -200 792 l-197 788 -225 3 -226 2 -14
-62z"/>
</g>
</svg>
